<svg id="Outline" enable-background="new 0 0 512 512" height="512" viewBox="0 0 512 512" width="512" xmlns="http://www.w3.org/2000/svg"><path d="m487.166748 304.423584.0002441-.0002441-3.3411865-3.3397827c6.7386475-23.1374512 4.1363525-42.1331787-7.4591064-53.7402954-.0302734-.0303345-.0625-.0584106-.0930176-.088623l-22.5388184-22.5388184c-9.673584-9.6740112-24.3232422-13.0941162-42.260498-10.1218872-5.6711425-9.5439454-15.9819336-15.5939332-27.4743652-15.5939332-8.5327148 0-16.5664063 3.3261719-22.6337891 9.3793945-6.040039 6.0541993-9.3662109 14.0878907-9.3662109 22.6206055v10.3406372c-3.3564453 2.3397217-6.6986084 4.8016357-10.017334 7.387085l-36.7122803-36.7122192c35.2388916-45.2102661 45.2224121-90.5461426 24.0162354-111.7523193l-22.6298828-22.6298828c-11.6669922-11.6674805-30.5727539-14.2338867-53.7521973-7.4646606l-3.3308105-3.3302612c-9.8945313-9.8959961-26.4155273-11.2329102-46.5166016-3.7680664-9.8710938 3.6663208-20.1608887 9.2884521-30.2861328 16.4456787l-1.878418-1.8782959c-4.9018555-4.9013672-12.2597656-6.8037109-20.1967773-5.2172852-6.8735352 1.3745117-13.7641602 5.2363281-19.4013672 10.8740234-5.6376953 5.637207-9.4995117 12.527832-10.8740234 19.4013672-1.5869141 7.9331055.3149414 15.2944336 5.2167969 20.1962891l1.8787842 1.8789063c-7.1572266 10.1252441-12.7794189 20.4151001-16.4456787 30.2861328-7.4663086 20.1010742-6.1279297 36.6210938 3.7675781 46.5166016l.1859131.1859131c-11.1955567 4.9880369-19.0238038 16.2136838-19.0238038 29.2403562v28.3049927c-4.7106934-2.7320557-10.1734619-4.3049927-16-4.3049927-17.6450195 0-32 14.3549805-32 32v8h-24c-4.418457 0-8 3.581543-8 8v48c0 4.418457 3.581543 8 8 8h24v8c0 17.6450195 14.3549805 32 32 32 5.8265381 0 11.2893066-1.572937 16-4.3049927v28.3049927c0 17.6450195 14.3549805 32 32 32s32-14.3549805 32-32v-64h103.4544678c-4.3497314 19.9768677-1.2052002 36.2687988 9.2613525 46.7348633l22.5388184 22.5388184c.0302734.0304565.0583496.0626831.088623.0930176 7.3950195 7.3950195 17.7646484 11.1337891 30.2998047 11.1337891 7.1530762 0 15.0187988-1.2337036 23.4313965-3.6838989l3.348877 3.3504028.0002441-.0002441c2.8120117 2.8119507 6.2235107 4.9666138 10.1340332 6.401123 3.8271484 1.4082031 8.1298828 2.1040039 12.8120117 2.1040039 10.1821289 0 22.1557617-3.2919922 34.9169922-9.7158203 6.2811279-3.161438 12.6282959-7.0105591 18.9377441-11.46875l1.8786621 1.8793945.0043945-.0043945c3.769043 3.769043 8.9916992 5.7646484 14.8105469 5.7646484 1.7490234 0 3.5522461-.1806641 5.3857422-.5473633 6.8740234-1.3745117 13.7646484-5.2363281 19.4018555-10.8740234 5.6376953-5.637207 9.4995117-12.527832 10.8740234-19.4018555 1.5869141-7.9326172-.3149414-15.2939453-5.2172852-20.1958008 0-.000061-.0002441-.0001831-.0002441-.0002441l.0046387-.0046387-1.8897705-1.8890381c6.4289551-9.1110229 11.6618652-18.4035034 15.2467041-27.1832275 8.8129883-21.5281373 7.9052735-39.145691-2.5568848-49.6071778zm-455.166748 38.576416v-32h16v32zm322.2387695 37.1147156c-2.3824768 4.6198425-4.5074463 9.3887634-6.2272644 14.2955322-1.4929504 4.2593994-3.5679016 9.5655518-3.5679016 14.1407166l-3.3283691-3.3297729c-5.0654297-5.0620117-5.0981445-16.1401367-.0869141-29.6337891 5.9208984-15.9433594 17.8212891-33.3632813 33.5083008-49.0507813 15.6875-15.6870117 33.1074219-27.5874023 49.0507813-33.5083008 13.4941406-5.0117188 24.5708008-4.9790039 29.6376953.090332l3.3565674 3.3551636c-.6541748.0941162-1.3041992.1800537-1.9703369.2976685-15.6391602 2.7563477-33.9506836 11.9130859-51.5566406 25.7802734-5.9023438 4.6416016-11.6899414 9.7895508-17.2016602 15.3012695-13.3131104 13.3131104-24.1904297 27.8643799-31.6142579 42.2616883zm13.7612305-149.1147156c0-4.2661133 1.6669922-8.2861328 4.6801758-11.3066406 3.0336914-3.0263672 7.0537109-4.6933594 11.3198242-4.6933594 4.0048828 0 7.7207031 1.4717407 10.5675049 3.9753418-.6896973.2375488-1.3808594.4784546-2.0772705.7316895-8.019043 2.9162598-16.2392578 6.7965698-24.4902344 11.4956055zm-208 58.0090942c5.4785156 2.2380981 11.71875 3.3414917 18.5527344 3.3414917 22.8059082 0 52.1665039-12.2286377 81.4713135-35.0718994l36.7037354 36.7038574c-.263916.338623-.5223389.6782837-.7836914 1.0174561h-135.9440919zm147.0061035-7.375061-73.8884277-73.8894043c-1.0385742-1.0385742-1.3535156-3.1860352-.8417969-5.7441406.7509766-3.7553711 3.1196289-7.847168 6.4985352-11.2260742s7.4707031-5.7475586 11.2260742-6.4985352c2.5576172-.5112305 4.7055664-.1962891 5.7446289.8417969l73.888916 73.8884888c-3.9506836 3.5027466-7.8496094 7.1508179-11.6633301 10.9645386s-7.461792 7.7126464-10.9645996 11.66333zm-13.1386719-81.0215454-26.8083496-26.8082886c-4.9018554-4.9013672-12.262207-6.8041992-20.196289-5.2172851-6.8740234 1.3745117-13.7646484 5.2363281-19.4018555 10.8740234-5.6376953 5.637207-9.4995117 12.527832-10.8740234 19.4018555-1.5869141 7.9326172.3149414 15.2939453 5.2172852 20.1958008l26.8083496 26.8085938c-36.6705323 28.0391234-73.7153321 38.513977-88.6125489 24.4858397v-39.3530273c0-2.6057739-.3205566-5.1369019-.9110107-7.5635376 8.3834229-21.8342896 24.5313721-45.3825073 45.7484131-66.6000366 21.8535156-21.8583984 46.2421875-38.3886719 68.6728516-46.5458984 20.1220703-7.3168945 36.328125-6.8486328 44.4628906 1.2861328 14.6169433 14.6173095 4.1933593 52.0256347-24.105713 89.0358276zm1.4758301-111.6657105.2484131.2484131c-8.3695068.4359741-17.62146 2.4489136-27.5496826 6.0592041-24.5825195 8.9394531-51.0473633 26.7924805-74.5185547 50.269043-19.3193359 19.319397-34.8032227 40.6265869-44.6625977 61.241333-3.4916992-3.0097656-7.6359863-5.2774048-12.1914063-6.5616455 8.3843994-21.4725342 24.5751953-45.0337524 45.5371094-65.996582 21.855957-21.8554688 46.2446289-38.3842773 68.6743164-46.5419922 20.123047-7.319336 36.3276368-6.8520508 44.4624024 1.2822265zm-158.3920898 22.6313477c-1.0385742-1.0385742-1.3535156-3.1860352-.8417969-5.7441406.7514648-3.7553711 3.1196289-7.847168 6.4985352-11.2260742s7.4707031-5.7470703 11.2260742-6.4985352c2.5576172-.5107422 4.7060547-.1962891 5.7446289.8422852l.4630127.4629517c-4.005249 3.4036865-7.9464111 7.0203857-11.7764893 10.8505249s-7.4467773 7.7713013-10.8505859 11.7764893zm-10.881836 49.0498047c5.9213867-15.9423828 17.8217773-33.3618164 33.5092773-49.0493164s33.1069336-27.5878906 49.0493164-33.5092773c11.7485352-4.3646241 21.6617433-4.9007569 27.3720704-1.6239014-21.8183594 9.7328491-44.6035156 25.9442139-65.1069336 46.4476318-20.4365234 20.4369507-36.7260742 43.4093018-46.4400635 65.1226807-3.2857666-5.7075806-2.7510986-15.6291504 1.616333-27.3878174zm-46.0693359 222.3720703c-8.8222656 0-16-7.1777344-16-16v-80c0-8.8222656 7.1777344-16 16-16s16 7.1777344 16 16v80c0 8.8222656-7.1777344 16-16 16zm64 40c0 8.8222656-7.1777344 16-16 16s-16-7.1777344-16-16v-192c0-8.8222656 7.1777344-16 16-16s16 7.1777344 16 16zm16-112h124.6447754c-6.8869629 10.7415161-12.4168701 21.5293579-16.3649902 32h-108.2797852zm122.7436523 38.9584961c8.1567383-22.4296875 24.6850586-46.8183594 46.5405273-68.6743164 21.855957-21.8554688 46.2446289-38.3837891 68.6743164-46.5405273 20.1235352-7.3173828 36.3291016-6.8476563 44.4628906 1.2856445l.2460938.2460327c-8.3686523.4360962-17.6195068 2.4484253-27.5458984 6.0576782-24.5820313 8.9375-51.0498047 26.7866211-74.5292969 50.2607422-23.4726563 23.4780273-41.3217773 49.9458008-50.2592773 74.527832-3.6091309 9.9265137-5.621582 19.1773071-6.0576172 27.5458374l-.2460938-.2460327c-8.1342773-8.1347656-8.6030273-24.3408203-1.2856445-44.4628906zm53.0581055 72.5810547c-12.9438477 2.2768555-23.2387695.4204102-29.1450195-5.4863281-.0007324-.0007324-.0013428-.0015869-.0020752-.0023193l.0020752-.0020752-.0344238-.0343628c-8.0991211-8.1467285-8.5581055-24.3326416-1.2526855-44.4260864 8.1557617-22.4306641 24.6831055-46.8222656 46.5366211-68.6811523 21.8598633-21.8544922 46.2514648-38.3818359 68.6821289-46.5375977 9.4921875-3.4511719 18.1098633-5.1694336 25.4228516-5.1694336 8.1708984 0 14.7099609 2.1494141 19.0063477 6.425293l.03125.03125.0019531-.0019531c5.9946289 6.0005493 7.8588867 16.1483154 5.515625 29.1738281l-6.027832-6.0239258c-9.8945313-9.9003906-26.4160156-11.2416992-46.5214844-3.7753906-18.0546875 6.7050781-37.5141602 19.9140625-54.7939453 37.1938477s-30.4887695 36.7392578-37.1938477 54.7939453c-7.4663086 20.1049805-6.1254883 36.6264648 3.7719727 46.5180664zm78.3481445-33.7563477c-.0488281-.0585938-.0986328-.1166992-.1494141-.1743164-.019043-.0234375-.0375977-.046875-.0566406-.0703125-1.2661133-1.5546875-1.4482422-5.4804688 1.1474609-10.4350586.1679688-.3217773.3500977-.6435547.5683594-1.0078125 1.1103516-1.8813477 2.5019531-3.6635742 4.140625-5.3017578 6.6469727-6.6542969 14.2290039-7.8901367 16.7407227-5.8481445.0258789.0209961.0522461.0419922.078125.0629883.050293.0395508.0991211.0830078.144043.1279297l13.526123 13.5211792c-4.7180176 1.9039917-9.373291 4.9553223-13.5246582 9.1067505-4.1522217 4.1520386-7.2038574 8.8084106-9.107666 13.5273438zm51.7407227 11.3828125c-.7514648 3.7553711-3.1196289 7.847168-6.4985352 11.2260742s-7.4707031 5.7470703-11.2260742 6.4985352c-2.5571289.5117188-4.7050781.1962891-5.7446289-.8417969-2.3061523-2.3066406-1.2495117-10.0644531 5.6567383-16.9707031 4.7802734-4.7797852 9.9682617-6.7578125 13.4741211-6.7578125 1.5595703 0 2.7866211.3911133 3.496582 1.1015625 1.0385742 1.0385742 1.3535157 3.1860352.8417969 5.7441406zm9.0229492-52.1899414c-2.8461914 6.9709473-6.9108887 14.3733521-11.9240723 21.7546387l-14.9128418-14.9074707c-.4658203-.4658203-.9628906-.9101563-1.4785156-1.3212891-9.8203125-7.9453125-26.1972656-4.9492188-38.1142578 6.9804688-2.5874023 2.5869141-4.809082 5.4404297-6.5742188 8.4326172-.3510742.5849609-.6884766 1.1831055-.9960938 1.7724609-5.3071289 10.1313477-5.1103516 20.7607422.4990234 27.7993164.2036133.269043.4140625.5209961.6352539.7617188.2456055.2827148.5029297.5561523.7739258.8266602l14.9057617 14.9111938c-4.9042969 3.3338623-9.8024902 6.2459717-14.6347656 8.6781616-14.418457 7.2583008-27.1796875 9.7675781-35.0170898 6.8852539-1.7211914-.6318359-3.1806641-1.5390625-4.3388672-2.6967773 0-.000061-.0002441-.0001831-.0002441-.0002441l.0002441-.0002441-.0039063-.0039063c-1.217041-1.2183228-2.1188965-2.6915283-2.7602539-4.515625-2.6650391-7.5361328-.3955078-19.6967773 6.2275391-33.3666992 6.6533203-13.7402344 17.015625-27.8486328 29.9663086-40.7993164 5.0644531-5.0644531 10.3735352-9.7875977 15.7832031-14.0424805 15.347168-12.0874023 31.5444336-20.3232422 44.4418945-22.5966797 5.5263672-.9755859 10.3496094-.8217773 13.9541016.4492188 1.8134766.6376953 3.2880859 1.5405273 4.5073242 2.7602539 5.4462892 5.4458007 5.0961916 17.4951171-.939453 32.2387694z"/></svg>