<svg height="30" viewBox="0 0 511 511.9" width="30" fill="#fff852" xmlns="http://www.w3.org/2000/svg"><path d="M511 151c-1-28-6-46-12-63s-16-32-30-45c-12-13-28-23-45-29-16-7-35-11-62-12-27-2-36-2-106-2L151 1c-27 2-46 6-62 12-17 7-33 17-46 30S20 71 14 88 3 123 2 150c-1 28-2 37-2 106l2 106c1 27 6 45 12 62s16 32 29 45 29 23 46 30c16 6 35 10 62 11a1885 1885 0 00211 0c27-1 46-5 62-12 34-13 62-40 75-74 6-17 11-35 12-62l1-106-1-105zm-46 209c-1 25-5 38-9 47-9 22-26 40-49 49-9 3-22 7-47 8-27 2-35 2-103 2l-104-2c-25-1-38-5-47-8-11-4-22-11-30-19-8-9-15-19-19-30-3-9-8-22-9-47l-1-104 1-103c1-25 6-39 9-48 4-11 11-21 19-29 9-9 19-15 30-19 9-4 22-8 47-9 27-1 35-2 104-2 68 0 76 1 103 2 25 1 39 5 48 9 11 4 21 10 29 19 8 8 15 18 19 29 4 9 8 23 9 48l1 103-1 103zm0 0"/><path d="M256 125a132 132 0 101 263 132 132 0 00-1-263zm0 216a85 85 0 110-170 85 85 0 010 170zm0 0M424 119a31 31 0 11-62 0 31 31 0 0162 0zm0 0"/></svg>