<?xml version="1.0" encoding="UTF-8" standalone="no"?>
<svg
   xmlns:dc="http://purl.org/dc/elements/1.1/"
   xmlns:cc="http://creativecommons.org/ns#"
   xmlns:rdf="http://www.w3.org/1999/02/22-rdf-syntax-ns#"
   xmlns:svg="http://www.w3.org/2000/svg"
   xmlns="http://www.w3.org/2000/svg"
   xmlns:sodipodi="http://sodipodi.sourceforge.net/DTD/sodipodi-0.dtd"
   xmlns:inkscape="http://www.inkscape.org/namespaces/inkscape"
   inkscape:export-ydpi="96"
   inkscape:export-xdpi="96"
   inkscape:export-filename="C:\Users\Prase\Desktop\nutri.logika794x1123.png"
   width="210mm"
   height="297mm"
   viewBox="0 0 210 297"
   version="1.1"
   id="svg8"
   inkscape:version="1.0 (4035a4fb49, 2020-05-01)"
   sodipodi:docname="nutri.logika.svg">
  <defs
     id="defs2" />
  <sodipodi:namedview
     id="base"
     pagecolor="#ffffff"
     bordercolor="#666666"
     borderopacity="1.0"
     inkscape:pageopacity="0.0"
     inkscape:pageshadow="2"
     inkscape:zoom="0.98994949"
     inkscape:cx="433.11183"
     inkscape:cy="314.83874"
     inkscape:document-units="mm"
     inkscape:current-layer="layer1"
     inkscape:document-rotation="0"
     showgrid="false"
     showguides="true"
     inkscape:guide-bbox="true"
     inkscape:window-width="1920"
     inkscape:window-height="1017"
     inkscape:window-x="-8"
     inkscape:window-y="-8"
     inkscape:window-maximized="1">
    <sodipodi:guide
       position="38.175594,280.36906"
       orientation="0,-1"
       id="guide864" />
    <sodipodi:guide
       id="guide865"
       orientation="1,0"
       position="110.17038,269.90346" />
  </sodipodi:namedview>
  <metadata
     id="metadata5">
    <rdf:RDF>
      <cc:Work
         rdf:about="">
        <dc:format>image/svg+xml</dc:format>
        <dc:type
           rdf:resource="http://purl.org/dc/dcmitype/StillImage" />
        <dc:title />
      </cc:Work>
    </rdf:RDF>
  </metadata>
  <g
     inkscape:label="Layer 1"
     inkscape:groupmode="layer"
     id="layer1">
    <path
       inkscape:export-ydpi="96"
       inkscape:export-xdpi="96"
       id="path18"
       style="fill:#fff852;fill-opacity:1;fill-rule:evenodd;stroke-width:0.264583"
       d="m 191.352,66.382309 a 50,50 0 0 1 -50,50.000001 50,50 0 0 1 -49.999995,-50.000001 50,50 0 0 1 49.999995,-50 50,50 0 0 1 50,50" />
    <path
       inkscape:export-ydpi="96"
       inkscape:export-xdpi="96"
       id="path18-9"
       style="fill:#b513b7;fill-opacity:1;fill-rule:evenodd;stroke-width:0.264583"
       d="m 128.99704,66.38231 a 50,50 0 0 1 -50,50 50,50 0 0 1 -50,-50 50,50 0 0 1 50,-50 50,50 0 0 1 50,50" />
    <path
       inkscape:export-ydpi="96"
       inkscape:export-xdpi="96"
       id="path18-0"
       style="opacity:0.483871;fill:#fff852;fill-opacity:1;fill-rule:evenodd;stroke-width:0.264715"
       d="m 191.402,66.382309 a 50.049999,50 0 0 1 -50.04999,50.000001 50.049999,50 0 0 1 -50.050004,-50.000001 50.049999,50 0 0 1 50.050004,-50 50.049999,50 0 0 1 50.04999,50" />
    <g
       aria-label="    "
       id="text854"
       style="font-style:normal;font-weight:normal;font-size:14.1111px;line-height:1.45;font-family:sans-serif;fill:#000000;fill-opacity:1;stroke:none;stroke-width:0.264583" />
    <text
       id="text858"
       y="127"
       x="131.15775"
       style="font-style:normal;font-weight:normal;font-size:10.5833px;line-height:1.25;font-family:sans-serif;fill:#000000;fill-opacity:1;stroke:none;stroke-width:0.264583"
       xml:space="preserve"><tspan
         style="stroke-width:0.264583"
         y="127"
         x="131.15775"
         id="tspan856"
         sodipodi:role="line" /></text>
    <g
       inkscape:export-ydpi="96"
       inkscape:export-xdpi="96"
       aria-label="NUTRI"
       id="text869"
       style="font-style:normal;font-weight:normal;font-size:19.7556px;line-height:1.25;font-family:sans-serif;fill:#000000;fill-opacity:1;stroke:none;stroke-width:0.264583"
       transform="translate(1.0805945)">
      <path
         d="m 62.26055,132.10268 h -1.350477 q 0,-0.16399 -3.163976,-4.62057 -3.30867,-4.67844 -3.77169,-5.90351 h -0.09646 q 0.173633,2.32475 0.173633,3.98391 0,3.24114 0.144694,6.54017 h -1.620573 q 0.163986,-3.13504 0.163986,-6.59805 0,-3.40513 -0.163986,-5.96139 h 1.852083 q 0,0.27009 2.913173,4.39869 3.04822,4.34082 3.472656,5.65272 h 0.09646 q -0.163987,-2.35369 -0.163987,-3.99356 0,-3.56912 -0.135047,-6.05785 h 1.649511 q -0.163986,2.55626 -0.163986,5.96139 0,3.46301 0.163986,6.59805 z"
         style="font-style:normal;font-variant:normal;font-weight:normal;font-stretch:normal;font-size:19.7556px;font-family:Candara;-inkscape-font-specification:Candara;fill:#b513b7;fill-opacity:1;stroke-width:0.264583"
         id="path862" />
      <path
         d="m 75.958251,119.54324 q -0.03858,1.82314 -0.05788,3.40513 -0.01929,1.58199 -0.01929,2.95176 0,6.463 -5.102876,6.463 -1.331185,0 -2.286165,-0.37621 -0.945335,-0.38585 -1.562696,-1.1672 -0.607715,-0.79099 -0.897103,-1.98713 -0.279741,-1.19614 -0.279741,-2.82635 0,-1.42765 -0.01929,-3.02893 -0.01929,-1.61093 -0.05788,-3.43407 h 1.832791 q -0.115755,3.67522 -0.115755,5.75882 0,1.67845 0.163987,2.73954 0.163986,1.05144 0.578776,1.75562 0.424435,0.70418 1.061089,1.00321 0.636654,0.28939 1.620573,0.28939 1.032151,0 1.678451,-0.28939 0.6463,-0.29903 1.051443,-0.97427 0.405143,-0.68489 0.578776,-1.74598 0.173633,-1.07073 0.173633,-2.79741 0,-1.02251 -0.03858,-2.44051 -0.02894,-1.42765 -0.09646,-3.29902 z"
         style="font-style:normal;font-variant:normal;font-weight:normal;font-stretch:normal;font-size:19.7556px;font-family:Candara;-inkscape-font-specification:Candara;fill:#b513b7;fill-opacity:1;stroke-width:0.264583"
         id="path864" />
      <path
         d="m 87.427662,119.54324 -0.04823,1.36012 q -1.909961,-0.0965 -3.945323,-0.0965 -0.01929,1.85208 -0.01929,4.69773 0,3.14468 0.09646,6.59805 h -1.765267 q 0.115755,-3.28938 0.115755,-6.59805 0,-2.80706 -0.05788,-4.69773 -1.427647,0 -4.012847,0.11575 l 0.04823,-1.37941 z"
         style="font-style:normal;font-variant:normal;font-weight:normal;font-stretch:normal;font-size:19.7556px;font-family:Candara;-inkscape-font-specification:Candara;fill:#b513b7;fill-opacity:1;stroke-width:0.264583"
         id="path866" />
      <path
         d="m 98.974247,132.10268 h -1.86173 q -0.926042,-2.76848 -1.350477,-3.66559 -0.540191,-1.12861 -1.225076,-1.45658 -0.540191,-0.26045 -1.9389,-0.26045 -0.819933,0 -1.456587,0.0193 0,3.11575 0.115756,5.36333 h -1.794206 q 0.144694,-2.99035 0.144694,-6.59805 0,-3.39549 -0.144694,-5.96139 h 1.360124 q 0.434082,0 1.099674,-0.0289 0.665593,-0.0289 1.52411,-0.0289 4.225066,0 4.225066,2.91317 0,2.42121 -2.372982,3.40513 v 0.0965 q 1.061089,0.31832 1.717035,1.47588 0.549838,0.96462 1.958193,4.72667 z m -2.951758,-9.0482 q 0,-2.29581 -3.106098,-2.29581 -1.109321,0 -1.86173,0.1254 0.06752,1.67845 0.06752,4.56268 0.578776,0.0193 1.109321,0.0193 3.790983,0 3.790983,-2.41156 z"
         style="font-style:normal;font-variant:normal;font-weight:normal;font-stretch:normal;font-size:19.7556px;font-family:Candara;-inkscape-font-specification:Candara;fill:#b513b7;fill-opacity:1;stroke-width:0.264583"
         id="path868" />
      <path
         d="m 103.25719,132.10268 h -1.83279 q 0.14469,-3.12539 0.14469,-6.59805 0,-3.41478 -0.14469,-5.96139 h 1.83279 q -0.13505,2.63343 -0.13505,5.96139 0,3.49195 0.13505,6.59805 z"
         style="font-style:normal;font-variant:normal;font-weight:normal;font-stretch:normal;font-size:19.7556px;font-family:Candara;-inkscape-font-specification:Candara;fill:#b513b7;fill-opacity:1;stroke-width:0.264583"
         id="path870" />
    </g>
    <g
       inkscape:export-ydpi="96"
       inkscape:export-xdpi="96"
       aria-label="LOGIKA"
       id="text873"
       style="font-style:normal;font-weight:normal;font-size:19.7556px;line-height:1.25;font-family:sans-serif;fill:#000000;fill-opacity:1;stroke:none;stroke-width:0.264583"
       transform="translate(-4.695607)">
      <path
         d="m 122.06212,130.68469 -0.0579,1.418 h -7.59163 q 0.11575,-2.38263 0.11575,-6.59806 0,-3.627 -0.11575,-5.96141 h 1.79421 q -0.11576,1.94855 -0.11576,5.96141 0,3.29903 -0.10611,5.28617 2.89389,0 6.07716,-0.10611 z"
         style="font-style:normal;font-variant:normal;font-weight:normal;font-stretch:normal;font-size:19.7556px;font-family:Candara;-inkscape-font-specification:Candara;fill:#fff852;fill-opacity:1;stroke-width:0.264583"
         id="path873" />
      <path
         d="m 135.03638,125.63003 q 0,3.11575 -1.82315,4.98713 -1.82315,1.86174 -4.21542,1.86174 -2.29582,0 -4.03215,-1.7074 -1.72669,-1.71704 -1.72669,-4.63021 0,-3.15434 1.82315,-4.99678 1.82315,-1.85209 4.21543,-1.85209 2.29581,0 4.0225,1.71704 1.73633,1.70739 1.73633,4.62057 z m -1.71704,0.22187 q 0,-2.48875 -1.31189,-3.84887 -1.30225,-1.36978 -3.00964,-1.36978 -1.582,0 -2.81672,1.4373 -1.23473,1.4373 -1.23473,3.83922 0,2.49839 1.3119,3.86817 1.32154,1.36012 3.01929,1.36012 1.58199,0 2.80707,-1.45659 1.23472,-1.45659 1.23472,-3.82957 z"
         style="font-style:normal;font-variant:normal;font-weight:normal;font-stretch:normal;font-size:19.7556px;font-family:Candara;-inkscape-font-specification:Candara;fill:#fff852;fill-opacity:1;stroke-width:0.264583"
         id="path875" />
      <path
         d="m 147.15212,131.84224 q -1.58199,0.5209 -3.19292,0.5209 -3.38585,0 -5.11253,-1.80385 -1.71704,-1.81351 -1.71704,-4.47588 0,-2.69132 1.87138,-4.69775 1.87138,-2.01607 5.1897,-2.01607 1.19614,0 2.26688,0.27974 l -0.24116,1.60129 q -1.59164,-0.38586 -2.56591,-0.38586 -2.3344,0 -3.57877,1.41801 -1.23473,1.40836 -1.23473,3.5016 0,2.10289 1.418,3.68488 1.42766,1.582 4.02251,1.582 0.47267,0 1.418,-0.1447 -0.16399,-1.00321 -0.16399,-2.3344 0,-1.11897 -0.13504,-2.18971 h 1.75562 q -0.0772,1.27331 -0.0772,2.69132 0,0.60771 0.0772,2.76848 z"
         style="font-style:normal;font-variant:normal;font-weight:normal;font-stretch:normal;font-size:19.7556px;font-family:Candara;-inkscape-font-specification:Candara;fill:#fff852;fill-opacity:1;stroke-width:0.264583"
         id="path877" />
      <path
         d="m 152.09102,132.10269 h -1.83279 q 0.14469,-3.1254 0.14469,-6.59806 0,-3.41479 -0.14469,-5.96141 h 1.83279 q -0.13505,2.63344 -0.13505,5.96141 0,3.49196 0.13505,6.59806 z"
         style="font-style:normal;font-variant:normal;font-weight:normal;font-stretch:normal;font-size:19.7556px;font-family:Candara;-inkscape-font-specification:Candara;fill:#fff852;fill-opacity:1;stroke-width:0.264583"
         id="path879" />
      <path
         d="m 165.4029,132.10269 h -2.11254 q 0,-0.10611 -1.09967,-1.67845 -1.27331,-1.82315 -2.32476,-3.00964 -1.42765,-1.61094 -2.11254,-1.61094 h -0.29903 q 0,2.25724 0.0965,6.29903 h -1.8135 q 0.14469,-2.99035 0.14469,-6.59806 0,-3.39549 -0.14469,-5.96141 h 1.8135 q -0.0965,2.56592 -0.0965,5.209 h 0.22186 q 0.53055,0 2.64309,-2.4598 2.12218,-2.45981 2.12218,-2.7492 h 2.00643 q 0,0.28939 -2.06431,2.39228 -2.05466,2.09325 -3.05787,2.81672 v 0.0965 q 1.10932,0.42444 3.69453,3.82958 2.38263,3.13504 2.38263,3.42443 z"
         style="font-style:normal;font-variant:normal;font-weight:normal;font-stretch:normal;font-size:19.7556px;font-family:Candara;-inkscape-font-specification:Candara;fill:#fff852;fill-opacity:1;stroke-width:0.264583"
         id="path881" />
      <path
         d="m 177.68263,132.10269 h -2.03537 q 0,-0.6463 -1.21543,-4.06109 h -5.56591 q -1.19614,3.36656 -1.19614,4.06109 h -1.94855 q 0,-0.35691 2.48874,-6.16398 2.48874,-5.81671 2.48874,-6.39549 h 2.23794 q 0,0.56913 2.37299,6.29903 2.37299,5.7299 2.37299,6.26044 z m -3.69453,-5.32475 q -2.26688,-5.66237 -2.26688,-6.01928 h -0.10611 q 0,0.29903 -2.34405,6.01928 z"
         style="font-style:normal;font-variant:normal;font-weight:normal;font-stretch:normal;font-size:19.7556px;font-family:Candara;-inkscape-font-specification:Candara;fill:#fff852;fill-opacity:1;stroke-width:0.264583"
         id="path883" />
    </g>
  </g>
</svg>
